<svg xmlns="http://www.w3.org/2000/svg" viewBox="0 0 100 125"><path d="M34 56a2 2 0 1 0-4.001.001A2 2 0 0 0 34 56zm16-18c-.738 0-1.376.405-1.723 1H47v1h1a2 2 0 0 0 4 0h1v-1h-1.277c-.347-.595-.985-1-1.723-1zm-10-5h1.092a1.483 1.483 0 0 0-.092.5 1.5 1.5 0 0 0 3 0c0-.176-.036-.343-.092-.5H45v-1h-5v1zm-3 24a2 2 0 1 0-.001-4.001A2 2 0 0 0 37 57zm5-21a2 2 0 1 0 .001 4.001A2 2 0 0 0 42 36zm16 14a2 2 0 1 0 .001 4.001A2 2 0 0 0 58 50zm-16 4a2 2 0 1 0-.001-4.001A2 2 0 0 0 42 54zm21-1a2 2 0 1 0 .001 4.001A2 2 0 0 0 63 53zm3 3a2 2 0 1 0 4.001-.001A2 2 0 0 0 66 56zM28.176 79.754c-2.365 2.32-1.801 6.732-1.801 6.732s4.4.649 6.766-1.671 1.801-6.731 1.801-6.731-4.401-.65-6.766 1.67zM76 74.137c-2.209 0-4 2.363-4 2.363s1.791 2.363 4 2.363 4-2.363 4-2.363-1.791-2.363-4-2.363zm-21.532-6.838C52.805 64.782 49.86 63.1 46.5 63.1c-5.183 0-9.4 3.993-9.4 8.9 0 1.439.37 2.795 1.015 3.998A8.461 8.461 0 0 0 37.1 80c0 4.907 4.217 8.9 9.4 8.9 3.36 0 6.305-1.683 7.968-4.199C58.709 83.842 61.9 80.269 61.9 76s-3.191-7.842-7.432-8.701zM46.5 66.9c2.538 0 4.684 1.547 5.368 3.659a6.345 6.345 0 0 0-5.817.558 9.675 9.675 0 0 0-5.072 1.695A4.637 4.637 0 0 1 40.9 72c0-2.812 2.512-5.1 5.6-5.1zm0 18.2c-3.088 0-5.6-2.287-5.6-5.1 0-1.654.882-3.112 2.228-4.044-.015.18-.027.36-.027.544 0 3.529 2.871 6.4 6.4 6.4.607 0 1.193-.091 1.75-.249-.984 1.461-2.734 2.449-4.751 2.449zm3-6c-1.434 0-2.6-1.166-2.6-2.6s1.167-2.6 2.6-2.6 2.6 1.166 2.6 2.6-1.166 2.6-2.6 2.6zm6.398.933L55.9 80a8.25 8.25 0 0 0-.222-1.857c.14-.525.222-1.074.222-1.643 0-.739-.133-1.447-.364-2.109.229-.762.364-1.56.364-2.391 0-.018-.003-.034-.003-.051 1.338.933 2.203 2.402 2.203 4.051 0 1.646-.868 3.102-2.202 4.033zM28 76.363S26.209 74 24 74s-4 2.363-4 2.363 1.791 2.363 4 2.363 4-2.363 4-2.363zm36.084 1.696s-.65 4.4 1.67 6.766 6.732 1.801 6.732 1.801.649-4.4-1.671-6.766-6.731-1.801-6.731-1.801zm7.057-4.813c2.365-2.32 1.801-6.732 1.801-6.732s-4.4-.649-6.766 1.671-1.801 6.731-1.801 6.731 4.4.65 6.766-1.67zM73.9 48.348V27c0-12.076-9.824-21.9-21.9-21.9h-4c-12.076 0-21.9 9.824-21.9 21.9v21.348c-8.159 6.032-13 15.547-13 25.652v12c0 3.041 3.743 5.206 11.778 6.812C31.608 94.159 40.53 94.9 50 94.9c9.471 0 18.392-.741 25.121-2.088C83.157 91.206 86.9 89.041 86.9 86V74c0-10.105-4.84-19.62-13-25.652zm-48.677 5.753A1.973 1.973 0 0 0 25 55a2 2 0 1 0 1.222-1.843 28.393 28.393 0 0 1 2.86-2.271l.818-.566V27c0-6.359 3.304-11.952 8.278-15.181.251.114.528.181.822.181.994 0 1.812-.728 1.967-1.678.338-.143.69-.258 1.039-.381-.001.02-.006.039-.006.059a2 2 0 0 0 4 0c0-.344-.095-.663-.248-.945.413-.052.832-.081 1.252-.104.001.016-.004.032-.004.049 0 1.655 1.344 3 3 3s3-1.345 3-3c0-.017-.005-.033-.005-.05.421.023.84.053 1.253.104A1.98 1.98 0 0 0 54 10a2 2 0 0 0 4 0c0-.02-.005-.039-.006-.059.349.123.7.238 1.038.381.156.95.974 1.678 1.968 1.678.294 0 .571-.067.822-.181C66.796 15.048 70.1 20.641 70.1 27v23.32l.818.566c1.01.699 1.961 1.46 2.859 2.271A2 2 0 1 0 75 55c0-.325-.085-.628-.223-.898a28.122 28.122 0 0 1 2.532 2.888 15.48 15.48 0 0 1-9.31 3.11A15.527 15.527 0 0 1 53.27 49.587C61.583 48.043 67.9 40.751 67.9 32c0-1.15-.119-2.272-.327-3.362-.002-.01-.001-.021-.003-.032l-.006-.026c-.067-.342-.156-.675-.242-1.01-.054-.213-.103-.428-.164-.637-.085-.288-.185-.567-.284-.849a18.663 18.663 0 0 0-.275-.752 20.166 20.166 0 0 0-1.043-2.154 16.76 16.76 0 0 0-.521-.854c-.112-.174-.224-.348-.342-.518a18.04 18.04 0 0 0-.653-.874c-.111-.141-.22-.286-.335-.424a18.632 18.632 0 0 0-.824-.906c-.095-.099-.184-.203-.281-.3a18.474 18.474 0 0 0-1.218-1.107l-.035-.026a17.433 17.433 0 0 0-1.255-.939c-.173-.119-.354-.223-.531-.335a17.161 17.161 0 0 0-.842-.512c-.216-.121-.438-.23-.66-.343a17.654 17.654 0 0 0-.796-.384 18.108 18.108 0 0 0-.719-.298 17.863 17.863 0 0 0-1.56-.536 17.694 17.694 0 0 0-.893-.23c-.238-.056-.476-.115-.718-.161a17.43 17.43 0 0 0-1.052-.161c-.204-.026-.403-.062-.609-.081-.565-.056-1.135-.089-1.712-.089s-1.147.033-1.712.087c-.206.02-.406.055-.609.081a17.43 17.43 0 0 0-1.052.161c-.242.046-.479.105-.718.161-.3.07-.599.144-.893.23a18.65 18.65 0 0 0-2.277.833c-.271.121-.536.252-.8.386-.22.111-.441.22-.655.34-.29.162-.57.339-.851.517-.174.11-.353.214-.522.331-.441.302-.871.62-1.283.959l-.007.005c-.425.35-.831.723-1.222 1.111-.093.092-.177.191-.268.285-.288.299-.57.603-.837.921-.113.135-.218.275-.327.413-.229.289-.452.582-.663.885-.116.167-.225.337-.335.508a17.166 17.166 0 0 0-1.255 2.299c-.107.236-.213.472-.31.712-.101.25-.19.505-.279.761-.098.279-.197.557-.282.842-.062.211-.111.429-.166.644-.085.333-.174.665-.24 1.005l-.006.026c-.002.011 0 .021-.002.032A17.808 17.808 0 0 0 32.1 32c0 8.751 6.317 16.043 14.628 17.586A15.526 15.526 0 0 1 32 60.1a15.487 15.487 0 0 1-9.31-3.11 28.157 28.157 0 0 1 2.533-2.889zM50 46.1c-7.775 0-14.1-6.325-14.1-14.1 0-.382.027-.757.057-1.131 5.738-.312 10.958-3.396 14.043-8.135 3.085 4.739 8.306 7.824 14.042 8.135.03.374.058.749.058 1.131 0 7.775-6.326 14.1-14.1 14.1zm33.1 35.304A3.457 3.457 0 0 0 81.5 81a3.5 3.5 0 0 0-3.5 3.5c0 1.38.807 2.562 1.968 3.133C75.092 89.325 64.799 91.1 50 91.1s-25.092-1.774-29.968-3.467A3.493 3.493 0 0 0 22 84.5a3.5 3.5 0 0 0-3.5-3.5c-.58 0-1.119.154-1.6.404V74c0-1.108.07-2.209.2-3.296.429.188.901.296 1.4.296a3.5 3.5 0 0 0 3.5-3.5 3.49 3.49 0 0 0-3.25-3.475 28.07 28.07 0 0 1 1.844-3.867A19.252 19.252 0 0 0 32 63.9a19.304 19.304 0 0 0 18-12.233A19.305 19.305 0 0 0 68 63.9c4.147 0 8.103-1.326 11.406-3.742a28.186 28.186 0 0 1 1.844 3.867A3.49 3.49 0 0 0 78 67.5a3.5 3.5 0 0 0 3.5 3.5 3.46 3.46 0 0 0 1.4-.296c.13 1.088.2 2.188.2 3.296v7.404zm-48.614-6.779s.65-4.4-1.67-6.766-6.732-1.801-6.732-1.801-.649 4.4 1.671 6.766 6.731 1.801 6.731 1.801zM55 33h1.092a1.483 1.483 0 0 0-.092.5 1.5 1.5 0 0 0 3 0c0-.176-.036-.343-.092-.5H60v-1h-5v1zm3 3a2 2 0 1 0 .001 4.001A2 2 0 0 0 58 36z"/><text y="115" font-size="5" font-weight="bold" font-family="'Helvetica Neue', Helvetica, Arial-Unicode, Arial, Sans-serif">Created by Olesya Kozlova</text><text y="120" font-size="5" font-weight="bold" font-family="'Helvetica Neue', Helvetica, Arial-Unicode, Arial, Sans-serif">from the Noun Project</text></svg>