<svg xmlns="http://www.w3.org/2000/svg" viewBox="0 0 100 125"><path d="M57.5 72a1 1 0 0 0 .922-.614 1 1 0 0 0-1.837-.785A1 1 0 0 0 57.5 72zM57.5 75a1 1 0 0 0 .922-.614 1 1 0 0 0-1.837-.785A1 1 0 0 0 57.5 75zM57.5 78a1 1 0 0 0 .922-.614 1 1 0 0 0-1.837-.785A1 1 0 0 0 57.5 78zM50.5 72a1 1 0 0 0 .922-.614 1 1 0 0 0-1.837-.785A1 1 0 0 0 50.5 72zM50.5 75a1 1 0 0 0 .922-.614 1 1 0 0 0-1.837-.785A1 1 0 0 0 50.5 75zM50.5 78a1 1 0 0 0 .922-.614 1 1 0 0 0-1.837-.785A1 1 0 0 0 50.5 78zM43.507 69.987a1 1 0 0 0-.922.614 1 1 0 0 0 1.837.785 1 1 0 0 0-.915-1.399zM43.507 72.987a1 1 0 0 0-.922.614 1 1 0 0 0 1.837.785 1 1 0 0 0-.915-1.399zM43.507 75.987a1 1 0 0 0-.922.614 1 1 0 0 0 1.837.785 1 1 0 0 0-.915-1.399z"/><path d="M63.012 30.839a1 1 0 0 0-.794 1.836 30.657 30.657 0 0 1 18.494 28.152c0 5.52-1.474 10.699-4.037 15.178L76 69.942v-3.437c1.748-.566 3.008-1.801 3.008-4.519 0-2.312-1.813-3.753-3.568-5.146-1.765-1.402-3.432-2.727-3.432-4.854 0-.014-.007-.025-.008-.039V48h2a1 1 0 1 0 0-2h-2v-2a1 1 0 1 0-2 0v2h-2a1 1 0 1 0 0 2h2v4.067c-.043 2.079-1.682 3.39-3.424 4.774-1.755 1.394-3.568 2.834-3.568 5.146 0 2.156.793 3.379 1.992 4.077v3.897l-.192 2.477-.472-4.554a1 1 0 0 0-.995-.896h-1.056L60.118 46H61a1 1 0 1 0 0-2h-1.922c-.024-.002-.045-.013-.07-.013h-.23l-4.808-19.23A1 1 0 0 0 53 24v-2.305c1.081-.351 2.009-1.125 2.009-2.845 0-1.418-1.07-2.242-2.014-2.968-.965-.742-1.55-1.248-1.55-2.021 0-.01-.006-.019-.006-.029V11h1.984a1 1 0 1 0 0-2h-1.984V7.013a1 1 0 0 0-2 0V9h-2.016a1 1 0 0 0 0 2h2.016v2.89c-.016.755-.593 1.259-1.543 1.991-.944.726-2.014 1.55-2.014 2.968 0 1.778.99 2.548 2.118 2.882V24a1 1 0 0 0-.97.757l-4.807 19.229h-.215c-.024 0-.045.011-.069.013H40a1 1 0 0 0 0 2h.915l-.781 8.927a79.08 79.08 0 0 0-1.073-.837c-2.599-1.999-5.053-3.888-5.053-7.103 0-.013-.007-.023-.007-.036V45h2a1 1 0 0 0 0-2h-2v-2a1 1 0 0 0-2 0v2h-2a1 1 0 0 0 0 2h2v2.139c-.078 3.121-2.489 4.984-5.046 6.95-2.432 1.872-4.947 3.807-4.947 6.897 0 3.057 1.263 4.779 3.051 5.749-.022.082-.051.162-.051.251v4.979l-.304 6.087a30.482 30.482 0 0 1-5.312-17.227 30.662 30.662 0 0 1 18.469-28.141 1 1 0 0 0-.795-1.835 32.662 32.662 0 0 0-19.673 29.976c0 18.009 14.651 32.66 32.66 32.66 10.97 0 20.687-5.443 26.612-13.763a.98.98 0 0 0 .247-.347 32.468 32.468 0 0 0 5.8-18.55 32.66 32.66 0 0 0-19.7-29.986zm-6.297 13.148h-2.541l1.794-2.99.747 2.99zm-8.833-25.138c0-.404.466-.792 1.233-1.383.421-.324.91-.7 1.33-1.166.42.466.908.842 1.33 1.166.768.59 1.233.979 1.233 1.383 0 .748-.114 1.138-2.563 1.138-2.448 0-2.563-.39-2.563-1.138zM51 21.982V24h-1v-2.016a35.727 35.727 0 0 0 1-.002zM48.781 26h3.438l3.078 12.312c-.05.052-.107.096-.146.16l-1.97 3.283-1.724-4.245a.998.998 0 0 0-.923-.624h-.003a1 1 0 0 0-.924.618l-1.764 4.265-1.978-3.296c-.042-.07-.104-.118-.159-.174L48.781 26zm3.147 17.987H49.09l1.432-3.464 1.406 3.464zm-6.892-3.008l1.805 3.008h-2.557l.752-3.008zM42.923 46h15.184l.176 1.704a4.698 4.698 0 0 0-1.004-.121c-1.428 0-2.675.645-3.382 1.604-.708-.958-1.954-1.602-3.381-1.602-1.433 0-2.682.649-3.389 1.613-.706-.964-1.955-1.613-3.388-1.613-.331 0-.652.044-.965.109L42.923 46zm-.34 3.874c.34-.176.736-.288 1.156-.288 1.083 0 1.999.639 1.999 1.395 0 .036.006.198.006.248a1.382 1.382 0 0 0 2.764 0c0-.047.009-.209.009-.248 0-.756.916-1.395 1.999-1.395s1.999.639 1.999 1.395v.248a1.382 1.382 0 0 0 2.764 0l.002-.251c0-.756.915-1.395 1.998-1.395.448 0 .878.113 1.23.31l.408 3.951a4.63 4.63 0 0 0-1.551-.287c-1.45 0-2.714.658-3.426 1.636-.712-.976-1.975-1.633-3.424-1.633-1.455 0-2.721.662-3.432 1.644-.711-.982-1.977-1.644-3.431-1.644-.488 0-.963.088-1.412.23l.342-3.916zm-.587 6.706l.039-.45c.002-.002.005-.002.006-.004.396-.359.982-.565 1.611-.565 1.104 0 2.037.652 2.037 1.425 0 .022-.007.186-.007.252a1.4 1.4 0 0 0 2.8 0l-.004-.252c0-.772.933-1.425 2.037-1.425s2.037.652 2.037 1.425c0 .015-.013.18-.013.252a1.4 1.4 0 0 0 2.8 0c0-.071-.011-.237-.011-.254 0-.772.933-1.426 2.037-1.426.751 0 1.441.298 1.804.776l.005.004.367 3.556a4.938 4.938 0 0 0-1.656-.296c-1.581 0-2.948.74-3.685 1.823-.738-1.082-2.104-1.82-3.684-1.82-1.586 0-2.956.744-3.692 1.833-.624-.923-1.703-1.591-2.988-1.773-.299-1.176-.977-2.174-1.842-3.076l.002-.005zm-1.319 1.519c.808.876 1.331 1.798 1.331 2.888 0 1.677-.459 2.803-1.381 3.559.206-1.057.381-2.269.381-3.354-.001-.996-.148-2.1-.331-3.093zm3.285 3.621c.832.241 1.437.825 1.437 1.49 0 .043.011.209.011.255a1.412 1.412 0 1 0 2.825 0c0-.042.014-.208.014-.255 0-.872 1.038-1.609 2.267-1.609s2.268.737 2.268 1.609l.001.255a1.412 1.412 0 1 0 2.825 0c0-.049.009-.217.009-.258 0-.872 1.038-1.609 2.267-1.609.753 0 1.459.273 1.888.732.006.007.015.009.022.015l.479 4.642H40.419c1.903-.839 3.332-2.4 3.543-5.267zm-12.178-8.583c.123-.494.347-.938.748-1.575l.007-.014c.167-.238.325-.482.468-.736.135.24.285.47.442.695.008.014.011.025.02.039.452.717.686 1.185.796 1.761.287 1.448.743 4.074.743 6.179 0 2.262-.527 5.129-.805 6.488a57.403 57.403 0 0 1-2.39 0c-.279-1.359-.805-4.226-.805-6.488-.001-2.192.493-4.945.776-6.349zm-4.777 14.85h11v3h-11v-3zm2.745-2.112a14.752 14.752 0 0 1-2.09-.309c-.28-1.139-.654-2.927-.654-4.373 0-.756.103-1.604.24-2.405.21-.868.781-2.919 1.659-3.662.033-.028.051-.055.076-.083.164-.128.326-.251.49-.383-.239 1.464-.465 3.254-.465 4.828-.001 2.202.439 4.83.744 6.387zm-5.745-4.888c0-1.09.522-2.012 1.331-2.888-.183.992-.331 2.096-.331 3.093 0 1.085.175 2.297.381 3.354-.921-.755-1.381-1.881-1.381-3.559zm2.575 19.54l.377-7.54h11.098l.819 16.382a30.774 30.774 0 0 1-12.294-8.842zm11.771-14.962a14.61 14.61 0 0 1-2.09.309c.304-1.556.744-4.185.744-6.387 0-1.574-.225-3.364-.465-4.828.168.135.335.261.503.393.023.024.037.048.067.072.855.725 1.421 2.692 1.643 3.596.143.82.252 1.694.252 2.472 0 1.447-.373 3.235-.654 4.373zm1.654 6.402v-2.979h22.432l1.037 10h-8.471L55 73.999A1 1 0 0 0 54 73h-.001A1 1 0 0 0 53 74.001l.006 4.986H48v-5a1 1 0 1 0-2 0v5h-5.642l-.351-7.02zm10.044 19.52c-3.181 0-6.25-.488-9.138-1.391l-.455-9.109h6.479c.022.002.041.013.063.013s.041-.011.063-.013h16.445c.061 0 .114-.024.173-.035l.722 6.958a30.467 30.467 0 0 1-14.352 3.577zm26.266-31.159c.422.519.691 1.058.691 1.659 0 2.439-1.184 2.94-5.145 2.994a24.595 24.595 0 0 0 1.997-1.756c.749-.748 1.576-1.729 2.457-2.897zM74 67v2h-7v-2h7zm-.614-9.246c.271.223.543.44.81.652.228.181.448.358.663.534-.878 1.176-1.691 2.148-2.414 2.872-1.128 1.129-2.647 2.275-3.834 3.113-.989-.066-1.734-.197-2.282-.435 1.331-.927 3.065-2.225 4.366-3.526.821-.821 1.727-1.908 2.691-3.21zm-8.378 4.233c0-1.347 1.303-2.382 2.812-3.581 1.136-.901 2.359-1.873 3.188-3.13.263.399.574.761.901 1.109-.948 1.292-1.852 2.388-2.628 3.164-1.234 1.233-2.92 2.485-4.194 3.367a4.886 4.886 0 0 1-.079-.929zm1.291 24.823l-.342-3.296L66.926 71h7.179l.853 7.675a30.901 30.901 0 0 1-8.659 8.135z"/></svg>